<svg width="18" height="25" viewBox="0 0 18 25" fill="none" xmlns="http://www.w3.org/2000/svg">
<path d="M9.57085 9.83579L12.4351 11.2925C15.0375 12.6182 17.2798 14.2468 17.2798 17.9458C17.2798 22.0867 14.1046 24.9919 8.77704 24.9919C3.75228 24.9919 1.19899 22.1685 0.364258 19.1733L4.9471 16.62C5.34809 18.0767 6.53472 19.9671 8.82614 19.9671C10.2828 19.9671 11.2485 19.2142 11.2485 17.8967C11.2485 16.9719 10.6347 16.3582 8.73612 15.4743L6.31376 14.2795C3.76047 13.0438 1.37903 11.5462 1.37903 7.49527C1.37903 3.83719 4.68522 0.751953 9.0471 0.751953C13.409 0.751953 15.9623 3.04337 17.3289 5.77671L13.0571 8.33001C12.2224 6.79148 11.0275 5.64577 9.17804 5.64577C7.94231 5.64577 7.01756 6.30865 7.01756 7.45436C7.01756 8.46913 7.68043 8.91104 9.57085 9.83579Z" fill="black"/>
</svg>
