<svg width="24" height="25" viewBox="0 0 24 25" fill="none" xmlns="http://www.w3.org/2000/svg">
<path d="M12.8525 24.9921C5.62632 24.9921 0.601562 19.8855 0.601562 12.8803C0.601562 5.87515 5.66724 0.768555 12.7625 0.768555C19.4567 0.768555 23.9495 5.83423 23.9495 12.8803C23.9495 13.4941 23.9086 14.247 23.7776 14.8199H6.99299C7.65586 17.8151 9.72632 19.5336 12.8934 19.5336C15.4467 19.5336 17.1243 18.7398 18.6219 16.8494L22.19 20.5975C19.8577 23.6336 16.7233 25.0003 12.8525 25.0003V24.9921ZM6.99299 10.8917H17.9181C17.4762 8.02744 15.4958 6.13702 12.6315 6.13702C9.76724 6.13702 7.60676 7.94561 6.99299 10.8917Z" fill="black"/>
</svg>
