<svg width="25" height="25" viewBox="0 0 25 25" fill="none" xmlns="http://www.w3.org/2000/svg">
<path d="M11.7661 0.768555C15.2442 0.768555 17.9366 2.26616 19.1232 4.37754H19.2951C19.2542 4.02564 19.2051 3.58373 19.2051 2.348V1.46416H24.8436V24.2802H19.2051V23.2245C19.2051 22.2097 19.246 21.5959 19.2951 21.1131H19.1232C17.7975 23.4945 14.9823 24.9921 11.5042 24.9921C4.98188 24.9921 0.407227 20.0165 0.407227 12.8803C0.407227 5.74421 5.25194 0.768555 11.7743 0.768555H11.7661ZM18.9923 12.7985C18.9923 8.87854 16.3899 6.14521 12.7809 6.14521C9.1719 6.14521 6.61043 8.87854 6.61043 12.7985C6.61043 16.7185 9.21282 19.5418 12.7809 19.5418C16.349 19.5418 18.9923 16.7676 18.9923 12.7985Z" fill="black"/>
</svg>
