<svg width="25" height="33" viewBox="0 0 25 33" fill="none" xmlns="http://www.w3.org/2000/svg">
<path d="M11.6871 8.76855C14.7232 8.76855 17.5057 9.95517 18.6514 11.8947H18.8233C18.7823 11.5837 18.7332 11.1418 18.7332 9.91426V0.0693359H24.8137V32.2883H19.1751V31.2736C19.1751 30.3079 19.2161 29.645 19.2652 29.2031H19.0933C17.6366 31.6255 14.7723 32.9921 11.4252 32.9921C4.95198 32.9921 0.369141 28.0165 0.369141 20.8803C0.369141 13.7442 5.12384 8.76855 11.6871 8.76855ZM18.9542 20.7985C18.9542 16.8785 16.3518 14.1452 12.7428 14.1452C9.13382 14.1452 6.57234 16.8785 6.57234 20.7985C6.57234 24.7185 9.17473 27.4927 12.7428 27.4927C16.3109 27.4927 18.9542 24.7594 18.9542 20.7985Z" fill="black"/>
</svg>
